<?xml version="1.0" encoding="UTF-8" standalone="no"?>
<!DOCTYPE svg PUBLIC "-//W3C//DTD SVG 1.1//EN" "http://www.w3.org/Graphics/SVG/1.1/DTD/svg11.dtd">
<!-- Created with Vectornator (http://vectornator.io/) -->
<svg height="100%" stroke-miterlimit="10" style="fill-rule:nonzero;clip-rule:evenodd;stroke-linecap:round;stroke-linejoin:round;" version="1.1" viewBox="0 0 2000 2000" width="100%" xml:space="preserve" xmlns="http://www.w3.org/2000/svg" xmlns:vectornator="http://vectornator.io" xmlns:xlink="http://www.w3.org/1999/xlink">
<defs/>
<clipPath id="ArtboardFrame">
<rect height="2000" width="2000" x="0" y="0"/>
</clipPath>
<g clip-path="url(#ArtboardFrame)" id="VollerBackground" vectornator:layerName="VollerBackground" visibility="hidden">
<path d="M0 0L2000 0L2000 2000L0 2000L0 0Z" fill="#52bd95" fill-rule="nonzero" opacity="1" stroke="#000000" stroke-linecap="butt" stroke-linejoin="round" stroke-width="0.1"/>
</g>
<g id="Runder-Background" vectornator:layerName="Runder Background">
<path d="M10 1000C10 453.238 453.238 10 1000 10C1546.76 10 1990 453.238 1990 1000C1990 1546.76 1546.76 1990 1000 1990C453.238 1990 10 1546.76 10 1000Z" fill="#52bd95" fill-rule="nonzero" opacity="1" stroke="#000000" stroke-linecap="butt" stroke-linejoin="round" stroke-width="10"/>
</g>
<g id="Body" vectornator:layerName="Body">
<g opacity="1">
<path d="M820 1000C820 712.812 900.589 480 1000 480C1099.41 480 1180 712.812 1180 1000C1180 1287.19 1099.41 1520 1000 1520C900.589 1520 820 1287.19 820 1000Z" fill="#c19a6b" fill-rule="nonzero" opacity="1" stroke="#000000" stroke-linecap="butt" stroke-linejoin="round" stroke-width="5"/>
</g>
<path d="M997 950C997 922.386 1037.29 900 1087 900C1136.71 900 1177 922.386 1177 950C1177 977.614 1136.71 1000 1087 1000C1037.29 1000 997 977.614 997 950Z" fill="#ffefd2" fill-rule="nonzero" opacity="1" stroke="#000000" stroke-linecap="butt" stroke-linejoin="round" stroke-width="1"/>
<path d="M993 1110C993 1082.39 1033.29 1060 1083 1060C1132.71 1060 1173 1082.39 1173 1110C1173 1137.61 1132.71 1160 1083 1160C1033.29 1160 993 1137.61 993 1110Z" fill="#ffefd2" fill-rule="nonzero" opacity="1" stroke="#000000" stroke-linecap="butt" stroke-linejoin="round" stroke-width="1"/>
<path d="M971 1270C971 1242.39 1011.29 1220 1061 1220C1110.71 1220 1151 1242.39 1151 1270C1151 1297.61 1110.71 1320 1061 1320C1011.29 1320 971 1297.61 971 1270Z" fill="#ffefd2" fill-rule="nonzero" opacity="1" stroke="#000000" stroke-linecap="butt" stroke-linejoin="round" stroke-width="1"/>
</g>
<g id="Extremitaeten" vectornator:layerName="Extremitaeten">
<g opacity="1">
<path d="M652.425 973.542L459.309 921.518" fill="none" opacity="1" stroke="#000000" stroke-linecap="round" stroke-linejoin="miter" stroke-width="20"/>
<path d="M839.34 891.976L656.423 972.855" fill="none" opacity="1" stroke="#000000" stroke-linecap="round" stroke-linejoin="miter" stroke-width="20"/>
</g>
<g opacity="1">
<path d="M802.602 1760.8L900.878 1671.89" fill="none" opacity="1" stroke="#000000" stroke-linecap="round" stroke-linejoin="miter" stroke-width="20"/>
<path d="M902.84 1666.6L915.403 1466.99" fill="none" opacity="1" stroke="#000000" stroke-linecap="round" stroke-linejoin="miter" stroke-width="20"/>
<path d="M801.552 1761.27L764.491 1727.71" fill="none" opacity="1" stroke="#000000" stroke-linecap="round" stroke-linejoin="miter" stroke-width="20"/>
</g>
<g opacity="1">
<path d="M1262.25 1732.72L1148.99 1663.89" fill="none" opacity="1" stroke="#000000" stroke-linecap="round" stroke-linejoin="miter" stroke-width="20"/>
<path d="M1264.07 1733.23L1232.8 1772.24" fill="none" opacity="1" stroke="#000000" stroke-linecap="round" stroke-linejoin="miter" stroke-width="20"/>
<path d="M1149.07 1659.61L1082.65 1470.97" fill="none" opacity="1" stroke="#000000" stroke-linecap="round" stroke-linejoin="miter" stroke-width="20"/>
</g>
<path d="M1379.27 1020L1186.16 967.977" fill="none" opacity="1" stroke="#000000" stroke-linecap="round" stroke-linejoin="miter" stroke-width="20"/>
<path d="M1555.96 920.365L1382.75 1020.36" fill="none" opacity="1" stroke="#000000" stroke-linecap="round" stroke-linejoin="miter" stroke-width="20"/>
</g>
<g id="Accessoirs" vectornator:layerName="Accessoirs">
<path d="M1216.71 708.763C1184.15 695.81 1166.52 713.826 1159.49 723.091C1152.15 732.841 1155.34 749.482 1158.46 742.404C1163.09 727.498 1187.15 727.498 1194.9 742.404C1202.68 757.326 1190.12 773.779 1172.4 776.17C1149.15 779.311 1139.49 759.998 1125.52 744.295C1111.55 728.607 1090.43 711.232 1059.8 702.373C1039.93 696.623 1013.15 701.232 995.992 717.201C978.867 701.232 952.054 696.623 932.179 702.373C901.554 711.232 880.46 728.607 866.46 744.295C852.522 759.998 842.866 779.311 819.585 776.17C801.897 773.779 789.304 757.326 797.085 742.404C804.835 727.498 828.898 727.498 833.554 742.404C836.648 749.482 839.835 732.841 832.491 723.091C825.491 713.825 807.835 695.81 775.272 708.763C743.555 721.373 731.367 767.998 746.398 800.467C767.336 845.748 826.804 868.686 889.117 862.951C933.273 858.888 967.961 832.935 995.992 790.451C1024.02 832.935 1058.71 858.889 1102.87 862.951C1165.18 868.685 1224.65 845.748 1245.59 800.467C1260.62 767.998 1248.43 721.373 1216.71 708.763Z" fill="#000000" fill-rule="nonzero" opacity="1" stroke="none" vectornator:layerName="path"/>
<path d="M1042.81 402.523C1056.28 393.023 1072.52 388.102 1089.43 385.691C1106.03 383.329 1101.08 357.79 1084.51 360.154C1055.22 364.32 1028.17 375.997 1009.12 398.694C887.466 389.623 785.155 433.077 780.176 496.179C777.8 526.298 799.644 535.331 836.328 537.547L836.328 595.835L1159.93 595.835L1159.93 563.006C1197.59 566.934 1221.33 561.788 1223.74 531.159C1228.31 473.332 1149.56 419.001 1042.81 402.523Z" fill="#000000" fill-rule="nonzero" opacity="1" stroke="none" vectornator:layerName="path"/>
</g>
<g id="Augen" vectornator:layerName="Augen">
<path d="M825 630C825 583.056 863.056 545 910 545C956.944 545 995 583.056 995 630C995 676.944 956.944 715 910 715C863.056 715 825 676.944 825 630Z" fill="#ffffff" fill-rule="nonzero" opacity="1" stroke="#000000" stroke-linecap="butt" stroke-linejoin="round" stroke-width="10"/>
<path d="M1000 635C1000 588.056 1038.06 550 1085 550C1131.94 550 1170 588.056 1170 635C1170 681.944 1131.94 720 1085 720C1038.06 720 1000 681.944 1000 635Z" fill="#ffffff" fill-rule="nonzero" opacity="1" stroke="#000000" stroke-linecap="butt" stroke-linejoin="round" stroke-width="10"/>
<path d="M887 636.5C887 627.387 894.387 620 903.5 620C912.613 620 920 627.387 920 636.5C920 645.613 912.613 653 903.5 653C894.387 653 887 645.613 887 636.5Z" fill="#000000" fill-rule="nonzero" opacity="1" stroke="#000000" stroke-linecap="butt" stroke-linejoin="round" stroke-width="0.1"/>
<path d="M1060 643.5C1060 634.387 1067.39 627 1076.5 627C1085.61 627 1093 634.387 1093 643.5C1093 652.613 1085.61 660 1076.5 660C1067.39 660 1060 652.613 1060 643.5Z" fill="#000000" fill-rule="nonzero" opacity="1" stroke="#000000" stroke-linecap="butt" stroke-linejoin="round" stroke-width="0.1"/>
</g>
</svg>
